<svg width="32" height="33" viewBox="0 0 32 33" fill="none" xmlns="http://www.w3.org/2000/svg">
<g filter="url(#filter0_d_433_1928)">
<path fill-rule="evenodd" clip-rule="evenodd" d="M10.571 17.3178L9.09899 15.4054C8.09392 14.0995 5.95305 13.6231 4.31548 14.339L4.69705 14.1722C4.29065 14.3498 4.09578 14.7927 4.26311 15.1609L6.30064 19.6436C6.62365 20.3542 7.44861 21.3593 8.13221 21.8642C8.13221 21.8642 12.2312 24.7492 12.2312 25.8308V27.2002H18.872H20.688H22.1925H23.8527V25.8308C23.8527 24.7492 26.3577 21.3423 26.3577 21.3423C26.8188 20.6801 27.2031 19.5135 27.2031 18.7389V13.0427C27.1731 11.7816 25.9124 10.7595 24.3569 10.7595C23.5787 10.7595 22.9484 11.2706 22.9484 11.9015V12.3577C22.9484 11.0966 21.6877 10.0745 20.1322 10.0745C19.354 10.0745 18.7237 10.5855 18.7237 11.2165V11.6727C18.7237 10.4116 17.463 9.38949 15.9075 9.38949C15.1293 9.38949 14.4989 9.90052 14.4989 10.5314V10.9877C14.4989 10.785 14.4735 10.6239 14.4242 10.4962L13.9946 4.61367C13.9365 3.81821 13.1481 3.2002 12.2312 3.2002C11.3079 3.2002 10.571 3.83214 10.571 4.61169V10.259V17.3178Z" fill="white"/>
<path d="M27.8027 18.7393C27.8027 19.2111 27.6887 19.762 27.5234 20.2686C27.3575 20.7771 27.1233 21.2926 26.8496 21.6855L26.8457 21.6914L26.8408 21.6982L26.8398 21.6992C26.8388 21.7006 26.8371 21.7032 26.835 21.7061C26.8305 21.7121 26.8232 21.7213 26.8145 21.7334C26.7968 21.7577 26.7708 21.7943 26.7373 21.8408C26.6702 21.9342 26.5737 22.0698 26.458 22.2354C26.2264 22.567 25.9182 23.0184 25.6113 23.502C25.3031 23.9877 25.0028 24.4956 24.7812 24.9404C24.6705 25.1628 24.5846 25.3602 24.5273 25.5244C24.4668 25.6982 24.4531 25.7956 24.4531 25.8311V27.7998H11.6309V25.8408C11.6288 25.8364 11.616 25.7814 11.5439 25.6641C11.4591 25.526 11.3257 25.3553 11.1465 25.1582C10.7893 24.7655 10.3012 24.3239 9.79688 23.9023C9.29552 23.4833 8.79209 23.0959 8.41309 22.8125C8.22402 22.6711 8.06683 22.5559 7.95703 22.4766C7.90224 22.437 7.85909 22.4064 7.83008 22.3857C7.81557 22.3754 7.80415 22.3675 7.79688 22.3623C7.79332 22.3598 7.79077 22.3577 7.78906 22.3564L7.78711 22.3555V22.3545L7.77539 22.3467C7.38215 22.0562 6.97015 21.6402 6.61816 21.2129C6.26729 20.7869 5.94593 20.3119 5.75488 19.8916L3.7168 15.4092C3.4533 14.8295 3.66422 14.2151 4.10059 13.8457L4.0752 13.7891L4.45703 13.6221L4.46484 13.6406C6.26384 13.0514 8.46318 13.5959 9.57422 15.0391L9.9707 15.5537V4.61133C9.97092 3.41435 11.0703 2.60059 12.2314 2.60059C13.3756 2.60071 14.5059 3.38143 14.5928 4.57031L14.917 9.01953C15.2226 8.87089 15.5667 8.7891 15.9072 8.78906C17.0022 8.78906 18.0548 9.24428 18.6953 9.99707C19.0805 9.66246 19.6108 9.47469 20.1318 9.47461C21.2269 9.47461 22.2795 9.92968 22.9199 10.6826C23.3051 10.3479 23.8353 10.1593 24.3564 10.1592C26.1255 10.1592 27.7624 11.3398 27.8027 13.0283V18.7393Z" stroke="#363B3E" stroke-width="1.2"/>
</g>
<defs>
<filter id="filter0_d_433_1928" x="0" y="0" width="31.4023" height="32.4004" filterUnits="userSpaceOnUse" color-interpolation-filters="sRGB">
<feFlood flood-opacity="0" result="BackgroundImageFix"/>
<feColorMatrix in="SourceAlpha" type="matrix" values="0 0 0 0 0 0 0 0 0 0 0 0 0 0 0 0 0 0 127 0" result="hardAlpha"/>
<feOffset dy="1"/>
<feGaussianBlur stdDeviation="1.5"/>
<feColorMatrix type="matrix" values="0 0 0 0 0 0 0 0 0 0 0 0 0 0 0 0 0 0 0.2 0"/>
<feBlend mode="normal" in2="BackgroundImageFix" result="effect1_dropShadow_433_1928"/>
<feBlend mode="normal" in="SourceGraphic" in2="effect1_dropShadow_433_1928" result="shape"/>
</filter>
</defs>
</svg>
