<svg width="20" height="20" viewBox="0 0 20 20" fill="none" xmlns="http://www.w3.org/2000/svg">
<mask id="path-1-inside-1_183_2944" fill="white">
<path d="M19 9.00145C18.7348 9.00145 18.4804 9.10681 18.2929 9.29434C18.1054 9.48188 18 9.73623 18 10.0015C18.0119 11.8745 17.3703 13.693 16.1857 15.1439C15.001 16.5948 13.3475 17.5871 11.51 17.95C9.67239 18.313 7.76578 18.0238 6.1185 17.1322C4.47123 16.2407 3.18641 14.8026 2.48533 13.0657C1.78424 11.3288 1.71079 9.40177 2.27762 7.61653C2.84445 5.83129 4.01607 4.29959 5.5907 3.28524C7.16533 2.27088 9.0444 1.83737 10.9043 2.05937C12.7641 2.28137 14.4884 3.14498 15.78 4.50146H13.38C13.1148 4.50146 12.8604 4.60681 12.6729 4.79435C12.4854 4.98189 12.38 5.23624 12.38 5.50146C12.38 5.76667 12.4854 6.02103 12.6729 6.20856C12.8604 6.3961 13.1148 6.50145 13.38 6.50145H17.91C18.1752 6.50145 18.4296 6.3961 18.6171 6.20856C18.8046 6.02103 18.91 5.76667 18.91 5.50146V1.00146C18.91 0.736247 18.8046 0.481893 18.6171 0.294357C18.4296 0.106821 18.1752 0.00146455 17.91 0.00146455C17.6448 0.00146455 17.3904 0.106821 17.2029 0.294357C17.0154 0.481893 16.91 0.736247 16.91 1.00146V2.77146C15.2447 1.17952 13.0807 0.211417 10.784 0.0307936C8.48729 -0.14983 6.19863 0.468108 4.30492 1.78015C2.41121 3.0922 1.02861 5.01786 0.390831 7.23164C-0.246949 9.44542 -0.100787 11.8115 0.804611 13.93C1.71001 16.0484 3.3191 17.7893 5.3599 18.8583C7.40069 19.9273 9.748 20.2588 12.005 19.7969C14.2621 19.335 16.2904 18.1079 17.7471 16.3231C19.2039 14.5383 19.9997 12.3053 20 10.0015C20 9.73623 19.8946 9.48188 19.7071 9.29434C19.5196 9.10681 19.2652 9.00145 19 9.00145Z"/>
</mask>
<path d="M19 9.00145C18.7348 9.00145 18.4804 9.10681 18.2929 9.29434C18.1054 9.48188 18 9.73623 18 10.0015C18.0119 11.8745 17.3703 13.693 16.1857 15.1439C15.001 16.5948 13.3475 17.5871 11.51 17.95C9.67239 18.313 7.76578 18.0238 6.1185 17.1322C4.47123 16.2407 3.18641 14.8026 2.48533 13.0657C1.78424 11.3288 1.71079 9.40177 2.27762 7.61653C2.84445 5.83129 4.01607 4.29959 5.5907 3.28524C7.16533 2.27088 9.0444 1.83737 10.9043 2.05937C12.7641 2.28137 14.4884 3.14498 15.78 4.50146H13.38C13.1148 4.50146 12.8604 4.60681 12.6729 4.79435C12.4854 4.98189 12.38 5.23624 12.38 5.50146C12.38 5.76667 12.4854 6.02103 12.6729 6.20856C12.8604 6.3961 13.1148 6.50145 13.38 6.50145H17.91C18.1752 6.50145 18.4296 6.3961 18.6171 6.20856C18.8046 6.02103 18.91 5.76667 18.91 5.50146V1.00146C18.91 0.736247 18.8046 0.481893 18.6171 0.294357C18.4296 0.106821 18.1752 0.00146455 17.91 0.00146455C17.6448 0.00146455 17.3904 0.106821 17.2029 0.294357C17.0154 0.481893 16.91 0.736247 16.91 1.00146V2.77146C15.2447 1.17952 13.0807 0.211417 10.784 0.0307936C8.48729 -0.14983 6.19863 0.468108 4.30492 1.78015C2.41121 3.0922 1.02861 5.01786 0.390831 7.23164C-0.246949 9.44542 -0.100787 11.8115 0.804611 13.93C1.71001 16.0484 3.3191 17.7893 5.3599 18.8583C7.40069 19.9273 9.748 20.2588 12.005 19.7969C14.2621 19.335 16.2904 18.1079 17.7471 16.3231C19.2039 14.5383 19.9997 12.3053 20 10.0015C20 9.73623 19.8946 9.48188 19.7071 9.29434C19.5196 9.10681 19.2652 9.00145 19 9.00145Z" fill="#7A4CC0"/>
<path d="M18 10.0015H14V10.0142L14.0001 10.0269L18 10.0015ZM15.78 4.50146V8.50146H25.1121L18.6768 1.74311L15.78 4.50146ZM17.91 0.00146455V-3.99854V0.00146455ZM16.91 2.77146L14.146 5.66288L20.91 12.1288V2.77146H16.91ZM20 10.0015L24 10.002V10.0015H20ZM19 9.00145V5.00145C17.6739 5.00145 16.4022 5.52823 15.4645 6.46592L18.2929 9.29434L21.1213 12.1228C20.5587 12.6854 19.7956 13.0015 19 13.0015V9.00145ZM18.2929 9.29434L15.4645 6.46592C14.5268 7.4036 14 8.67537 14 10.0015H18H22C22 10.7971 21.6839 11.5602 21.1213 12.1228L18.2929 9.29434ZM18 10.0015L14.0001 10.0269C14.0061 10.9692 13.6833 11.8841 13.0873 12.6141L16.1857 15.1439L19.284 17.6737C21.0573 15.5019 22.0177 12.7797 21.9999 9.97602L18 10.0015ZM16.1857 15.1439L13.0873 12.6141C12.4913 13.344 11.6594 13.8433 10.7349 14.0259L11.51 17.95L12.285 21.8742C15.0357 21.331 17.5108 19.8455 19.284 17.6737L16.1857 15.1439ZM11.51 17.95L10.7349 14.0259C9.81042 14.2084 8.85119 14.0629 8.02243 13.6144L6.1185 17.1322L4.21457 20.65C6.68037 21.9846 9.53437 22.4175 12.285 21.8742L11.51 17.95ZM6.1185 17.1322L8.02243 13.6144C7.19368 13.1659 6.54728 12.4424 6.19456 11.5685L2.48533 13.0657L-1.22391 14.5629C-0.174467 17.1629 1.74878 19.3155 4.21457 20.65L6.1185 17.1322ZM2.48533 13.0657L6.19456 11.5685C5.84185 10.6947 5.80489 9.72517 6.09007 8.82701L2.27762 7.61653L-1.53482 6.40605C-2.38331 9.07836 -2.27336 11.9629 -1.22391 14.5629L2.48533 13.0657ZM2.27762 7.61653L6.09007 8.82701C6.37524 7.92885 6.96469 7.15825 7.75689 6.64792L5.5907 3.28524L3.42451 -0.0774413C1.06746 1.44094 -0.686341 3.73373 -1.53482 6.40605L2.27762 7.61653ZM5.5907 3.28524L7.75689 6.64792C8.5491 6.13759 9.49447 5.91949 10.4302 6.03118L10.9043 2.05937L11.3783 -1.91243C8.59433 -2.24474 5.78157 -1.59582 3.42451 -0.0774413L5.5907 3.28524ZM10.9043 2.05937L10.4302 6.03118C11.3659 6.14287 12.2334 6.57735 12.8832 7.25981L15.78 4.50146L18.6768 1.74311C16.7434 -0.287397 14.1624 -1.58013 11.3783 -1.91243L10.9043 2.05937ZM15.78 4.50146V0.501458H13.38V4.50146V8.50146H15.78V4.50146ZM13.38 4.50146V0.501458C12.0539 0.501458 10.7821 1.02825 9.84447 1.96592L12.6729 4.79435L15.5013 7.62278C14.9387 8.18538 14.1757 8.50146 13.38 8.50146V4.50146ZM12.6729 4.79435L9.84447 1.96592C8.9068 2.90359 8.38 4.17536 8.38 5.50146H12.38H16.38C16.38 6.29712 16.0639 7.06018 15.5013 7.62278L12.6729 4.79435ZM12.38 5.50146H8.38C8.38 6.82756 8.9068 8.09932 9.84447 9.03699L12.6729 6.20856L15.5013 3.38013C16.0639 3.94273 16.38 4.70579 16.38 5.50146H12.38ZM12.6729 6.20856L9.84447 9.03699C10.7822 9.97467 12.0539 10.5015 13.38 10.5015V6.50145V2.50145C14.1757 2.50145 14.9387 2.81753 15.5013 3.38013L12.6729 6.20856ZM13.38 6.50145V10.5015H17.91V6.50145V2.50145H13.38V6.50145ZM17.91 6.50145V10.5015C19.2361 10.5015 20.5078 9.97467 21.4455 9.03699L18.6171 6.20856L15.7887 3.38013C16.3513 2.81752 17.1144 2.50145 17.91 2.50145V6.50145ZM18.6171 6.20856L21.4455 9.03699C22.3832 8.09929 22.91 6.82752 22.91 5.50146H18.91H14.91C14.91 4.70583 15.2261 3.94276 15.7887 3.38013L18.6171 6.20856ZM18.91 5.50146H22.91V1.00146H18.91H14.91V5.50146H18.91ZM18.91 1.00146H22.91C22.91 -0.324593 22.3832 -1.59637 21.4455 -2.53407L18.6171 0.294357L15.7887 3.12279C15.2261 2.56016 14.91 1.79709 14.91 1.00146H18.91ZM18.6171 0.294357L21.4455 -2.53407C20.5078 -3.47176 19.2361 -3.99854 17.91 -3.99854V0.00146455V4.00146C17.1144 4.00146 16.3513 3.6854 15.7887 3.12279L18.6171 0.294357ZM17.91 0.00146455V-3.99854C16.5839 -3.99854 15.3122 -3.47176 14.3745 -2.53407L17.2029 0.294357L20.0313 3.12279C19.4687 3.6854 18.7056 4.00146 17.91 4.00146V0.00146455ZM17.2029 0.294357L14.3745 -2.53407C13.4368 -1.5964 12.91 -0.324632 12.91 1.00146H16.91H20.91C20.91 1.79713 20.5939 2.56019 20.0313 3.12279L17.2029 0.294357ZM16.91 1.00146H12.91V2.77146H16.91H20.91V1.00146H16.91ZM16.91 2.77146L19.674 -0.11996C17.3425 -2.34867 14.313 -3.70402 11.0976 -3.95689L10.784 0.0307936L10.4704 4.01848C11.8484 4.12685 13.1468 4.70772 14.146 5.66288L16.91 2.77146ZM10.784 0.0307936L11.0976 -3.95689C7.8822 -4.20977 4.67808 -3.34465 2.02689 -1.50779L4.30492 1.78015L6.58295 5.0681C7.71918 4.28087 9.09237 3.91011 10.4704 4.01848L10.784 0.0307936ZM4.30492 1.78015L2.02689 -1.50779C-0.624302 0.32907 -2.55994 3.025 -3.45284 6.1243L0.390831 7.23164L4.2345 8.33899C4.61717 7.01072 5.44673 5.85532 6.58295 5.0681L4.30492 1.78015ZM0.390831 7.23164L-3.45284 6.1243C-4.34573 9.22359 -4.1411 12.5361 -2.87355 15.502L0.804611 13.93L4.48277 12.358C3.93953 11.0869 3.85183 9.66725 4.2345 8.33899L0.390831 7.23164ZM0.804611 13.93L-2.87355 15.502C-1.60599 18.4678 0.646746 20.905 3.50386 22.4016L5.3599 18.8583L7.21594 15.315C5.99146 14.6736 5.02601 13.6291 4.48277 12.358L0.804611 13.93ZM5.3599 18.8583L3.50386 22.4016C6.36097 23.8982 9.6472 24.3624 12.8071 23.7157L12.005 19.7969L11.203 15.8781C9.8488 16.1553 8.44042 15.9564 7.21594 15.315L5.3599 18.8583ZM12.005 19.7969L12.8071 23.7157C15.9669 23.069 18.8066 21.3511 20.846 18.8524L17.7471 16.3231L14.6483 13.7939C13.7742 14.8647 12.5572 15.601 11.203 15.8781L12.005 19.7969ZM17.7471 16.3231L20.846 18.8524C22.8854 16.3536 23.9995 13.2274 24 10.002L20 10.0015L16 10.0009C15.9998 11.3832 15.5223 12.723 14.6483 13.7939L17.7471 16.3231ZM20 10.0015H24C24 8.67535 23.4732 7.40359 22.5355 6.46592L19.7071 9.29434L16.8787 12.1228C16.3161 11.5602 16 10.7971 16 10.0015H20ZM19.7071 9.29434L22.5355 6.46592C21.5978 5.52823 20.3261 5.00145 19 5.00145V9.00145V13.0015C18.2044 13.0015 17.4413 12.6854 16.8787 12.1228L19.7071 9.29434Z" fill="#0F5CEC" mask="url(#path-1-inside-1_183_2944)"/>
</svg>
