<svg width="36" height="36" viewBox="0 0 36 36" fill="none" xmlns="http://www.w3.org/2000/svg">
<path d="M20.1149 18L26.5649 11.565C26.8474 11.2826 27.006 10.8995 27.006 10.5C27.006 10.1006 26.8474 9.71749 26.5649 9.43503C26.2825 9.15258 25.8994 8.9939 25.4999 8.9939C25.1005 8.9939 24.7174 9.15258 24.4349 9.43503L17.9999 15.885L11.5649 9.43503C11.2825 9.15258 10.8994 8.9939 10.4999 8.9939C10.1005 8.9939 9.71736 9.15258 9.43491 9.43503C9.15245 9.71749 8.99377 10.1006 8.99377 10.5C8.99377 10.8995 9.15245 11.2826 9.43491 11.565L15.8849 18L9.43491 24.435C9.29432 24.5745 9.18272 24.7404 9.10657 24.9232C9.03042 25.106 8.99121 25.302 8.99121 25.5C8.99121 25.6981 9.03042 25.8941 9.10657 26.0769C9.18272 26.2597 9.29432 26.4256 9.43491 26.565C9.57435 26.7056 9.74025 26.8172 9.92304 26.8934C10.1058 26.9695 10.3019 27.0087 10.4999 27.0087C10.6979 27.0087 10.894 26.9695 11.0768 26.8934C11.2596 26.8172 11.4255 26.7056 11.5649 26.565L17.9999 20.115L24.4349 26.565C24.5744 26.7056 24.7403 26.8172 24.923 26.8934C25.1058 26.9695 25.3019 27.0087 25.4999 27.0087C25.6979 27.0087 25.894 26.9695 26.0768 26.8934C26.2596 26.8172 26.4255 26.7056 26.5649 26.565C26.7055 26.4256 26.8171 26.2597 26.8932 26.0769C26.9694 25.8941 27.0086 25.6981 27.0086 25.5C27.0086 25.302 26.9694 25.106 26.8932 24.9232C26.8171 24.7404 26.7055 24.5745 26.5649 24.435L20.1149 18Z" fill="#2E0073"/>
</svg>
