<svg width="41" height="41" viewBox="0 0 41 41" fill="none" xmlns="http://www.w3.org/2000/svg">
<mask id="path-1-outside-1_941_778" maskUnits="userSpaceOnUse" x="0" y="0" width="41" height="41" fill="black">
<rect fill="white" width="41" height="41"/>
<path d="M38.674 15.7225L34.9885 14.494L36.724 11.023C36.8999 10.6597 36.9588 10.2507 36.8924 9.85256C36.826 9.45439 36.6377 9.08662 36.3535 8.8L32.2 4.64651C31.9119 4.35807 31.5406 4.16721 31.1383 4.10075C30.7361 4.03429 30.3231 4.09558 29.9575 4.27601L26.4865 6.01151L25.258 2.32601C25.1283 1.94184 24.882 1.60768 24.5535 1.37002C24.2249 1.13235 23.8305 1.00302 23.425 1.00001H17.575C17.1662 0.998951 16.7674 1.1264 16.435 1.36435C16.1026 1.60229 15.8533 1.9387 15.7225 2.32601L14.494 6.01151L11.023 4.27601C10.6597 4.10008 10.2507 4.04123 9.85256 4.1076C9.45439 4.17396 9.08662 4.36225 8.8 4.64651L4.64651 8.8C4.35807 9.08815 4.16721 9.45945 4.10075 9.86169C4.03429 10.2639 4.09558 10.6769 4.27601 11.0425L6.01151 14.5135L2.32601 15.742C1.94184 15.8717 1.60768 16.118 1.37002 16.4466C1.13235 16.7751 1.00302 17.1695 1.00001 17.575V23.425C0.998951 23.8338 1.1264 24.2326 1.36435 24.565C1.60229 24.8974 1.9387 25.1467 2.32601 25.2775L6.01151 26.506L4.27601 29.977C4.10008 30.3403 4.04123 30.7493 4.1076 31.1474C4.17396 31.5456 4.36225 31.9134 4.64651 32.2L8.8 36.3535C9.08815 36.6419 9.45945 36.8328 9.86169 36.8993C10.2639 36.9657 10.6769 36.9044 11.0425 36.724L14.5135 34.9885L15.742 38.674C15.8728 39.0613 16.1221 39.3977 16.4545 39.6357C16.7869 39.8736 17.1857 40.0011 17.5945 40H23.4445C23.8533 40.0011 24.2521 39.8736 24.5845 39.6357C24.9169 39.3977 25.1662 39.0613 25.297 38.674L26.5255 34.9885L29.9965 36.724C30.3575 36.8955 30.7625 36.9519 31.1566 36.8857C31.5507 36.8194 31.9149 36.6336 32.2 36.3535L36.3535 32.2C36.6419 31.9119 36.8328 31.5406 36.8993 31.1383C36.9657 30.7361 36.9044 30.3231 36.724 29.9575L34.9885 26.4865L38.674 25.258C39.0582 25.1283 39.3923 24.882 39.63 24.5535C39.8676 24.2249 39.997 23.8305 40 23.425V17.575C40.0011 17.1662 39.8736 16.7674 39.6357 16.435C39.3977 16.1026 39.0613 15.8533 38.674 15.7225ZM36.1 22.021L33.76 22.801C33.2219 22.9755 32.7282 23.265 32.3132 23.6494C31.8982 24.0338 31.5717 24.5039 31.3565 25.0271C31.1413 25.5502 31.0425 26.1139 31.067 26.6791C31.0914 27.2443 31.2385 27.7974 31.498 28.3L32.6095 30.523L30.4645 32.668L28.3 31.498C27.7999 31.2489 27.2522 31.1101 26.6938 31.091C26.1354 31.072 25.5795 31.1731 25.0636 31.3876C24.5477 31.6021 24.084 31.9249 23.7037 32.3342C23.3234 32.7435 23.0355 33.2298 22.8595 33.76L22.0795 36.1H18.979L18.199 33.76C18.0245 33.2219 17.735 32.7282 17.3506 32.3132C16.9662 31.8982 16.4961 31.5717 15.9729 31.3565C15.4498 31.1413 14.8861 31.0425 14.3209 31.067C13.7557 31.0914 13.2026 31.2385 12.7 31.498L10.477 32.6095L8.33201 30.4645L9.502 28.3C9.76154 27.7974 9.90862 27.2443 9.93304 26.6791C9.95747 26.1139 9.85865 25.5502 9.64345 25.0271C9.42825 24.5039 9.10182 24.0338 8.6868 23.6494C8.27177 23.265 7.77809 22.9755 7.24 22.801L4.90001 22.021V18.979L7.24 18.199C7.77809 18.0245 8.27177 17.735 8.6868 17.3506C9.10182 16.9662 9.42825 16.4961 9.64345 15.9729C9.85865 15.4498 9.95747 14.8861 9.93304 14.3209C9.90862 13.7557 9.76154 13.2026 9.502 12.7L8.3905 10.5355L10.5355 8.3905L12.7 9.502C13.2026 9.76154 13.7557 9.90862 14.3209 9.93304C14.8861 9.95747 15.4498 9.85865 15.9729 9.64345C16.4961 9.42825 16.9662 9.10182 17.3506 8.6868C17.735 8.27177 18.0245 7.77809 18.199 7.24L18.979 4.90001H22.021L22.801 7.24C22.9755 7.77809 23.265 8.27177 23.6494 8.6868C24.0338 9.10182 24.5039 9.42825 25.0271 9.64345C25.5502 9.85865 26.1139 9.95747 26.6791 9.93304C27.2443 9.90862 27.7974 9.76154 28.3 9.502L30.523 8.3905L32.668 10.5355L31.498 12.7C31.2489 13.2001 31.1101 13.7478 31.091 14.3062C31.072 14.8646 31.1731 15.4205 31.3876 15.9364C31.6021 16.4523 31.9249 16.916 32.3342 17.2963C32.7435 17.6766 33.2298 17.9645 33.76 18.1405L36.1 18.9205V22.021ZM20.5 12.7C18.9573 12.7 17.4493 13.1575 16.1666 14.0145C14.8839 14.8716 13.8841 16.0898 13.2937 17.5151C12.7034 18.9403 12.5489 20.5087 12.8499 22.0217C13.1508 23.5348 13.8937 24.9246 14.9846 26.0154C16.0754 27.1063 17.4652 27.8492 18.9783 28.1501C20.4913 28.4511 22.0597 28.2966 23.4849 27.7063C24.9102 27.1159 26.1284 26.1161 26.9855 24.8334C27.8425 23.5507 28.3 22.0427 28.3 20.5C28.3 18.4313 27.4782 16.4474 26.0154 14.9846C24.5526 13.5218 22.5687 12.7 20.5 12.7ZM20.5 24.4C19.7287 24.4 18.9746 24.1713 18.3333 23.7427C17.6919 23.3142 17.1921 22.7051 16.8969 21.9925C16.6017 21.2798 16.5245 20.4957 16.6749 19.7391C16.8254 18.9826 17.1969 18.2877 17.7423 17.7423C18.2877 17.1969 18.9826 16.8254 19.7391 16.6749C20.4957 16.5245 21.2798 16.6017 21.9925 16.8969C22.7051 17.1921 23.3142 17.6919 23.7427 18.3333C24.1713 18.9746 24.4 19.7287 24.4 20.5C24.4 21.5343 23.9891 22.5263 23.2577 23.2577C22.5263 23.9891 21.5343 24.4 20.5 24.4Z"/>
</mask>
<path d="M38.674 15.7225L34.9885 14.494L36.724 11.023C36.8999 10.6597 36.9588 10.2507 36.8924 9.85256C36.826 9.45439 36.6377 9.08662 36.3535 8.8L32.2 4.64651C31.9119 4.35807 31.5406 4.16721 31.1383 4.10075C30.7361 4.03429 30.3231 4.09558 29.9575 4.27601L26.4865 6.01151L25.258 2.32601C25.1283 1.94184 24.882 1.60768 24.5535 1.37002C24.2249 1.13235 23.8305 1.00302 23.425 1.00001H17.575C17.1662 0.998951 16.7674 1.1264 16.435 1.36435C16.1026 1.60229 15.8533 1.9387 15.7225 2.32601L14.494 6.01151L11.023 4.27601C10.6597 4.10008 10.2507 4.04123 9.85256 4.1076C9.45439 4.17396 9.08662 4.36225 8.8 4.64651L4.64651 8.8C4.35807 9.08815 4.16721 9.45945 4.10075 9.86169C4.03429 10.2639 4.09558 10.6769 4.27601 11.0425L6.01151 14.5135L2.32601 15.742C1.94184 15.8717 1.60768 16.118 1.37002 16.4466C1.13235 16.7751 1.00302 17.1695 1.00001 17.575V23.425C0.998951 23.8338 1.1264 24.2326 1.36435 24.565C1.60229 24.8974 1.9387 25.1467 2.32601 25.2775L6.01151 26.506L4.27601 29.977C4.10008 30.3403 4.04123 30.7493 4.1076 31.1474C4.17396 31.5456 4.36225 31.9134 4.64651 32.2L8.8 36.3535C9.08815 36.6419 9.45945 36.8328 9.86169 36.8993C10.2639 36.9657 10.6769 36.9044 11.0425 36.724L14.5135 34.9885L15.742 38.674C15.8728 39.0613 16.1221 39.3977 16.4545 39.6357C16.7869 39.8736 17.1857 40.0011 17.5945 40H23.4445C23.8533 40.0011 24.2521 39.8736 24.5845 39.6357C24.9169 39.3977 25.1662 39.0613 25.297 38.674L26.5255 34.9885L29.9965 36.724C30.3575 36.8955 30.7625 36.9519 31.1566 36.8857C31.5507 36.8194 31.9149 36.6336 32.2 36.3535L36.3535 32.2C36.6419 31.9119 36.8328 31.5406 36.8993 31.1383C36.9657 30.7361 36.9044 30.3231 36.724 29.9575L34.9885 26.4865L38.674 25.258C39.0582 25.1283 39.3923 24.882 39.63 24.5535C39.8676 24.2249 39.997 23.8305 40 23.425V17.575C40.0011 17.1662 39.8736 16.7674 39.6357 16.435C39.3977 16.1026 39.0613 15.8533 38.674 15.7225ZM36.1 22.021L33.76 22.801C33.2219 22.9755 32.7282 23.265 32.3132 23.6494C31.8982 24.0338 31.5717 24.5039 31.3565 25.0271C31.1413 25.5502 31.0425 26.1139 31.067 26.6791C31.0914 27.2443 31.2385 27.7974 31.498 28.3L32.6095 30.523L30.4645 32.668L28.3 31.498C27.7999 31.2489 27.2522 31.1101 26.6938 31.091C26.1354 31.072 25.5795 31.1731 25.0636 31.3876C24.5477 31.6021 24.084 31.9249 23.7037 32.3342C23.3234 32.7435 23.0355 33.2298 22.8595 33.76L22.0795 36.1H18.979L18.199 33.76C18.0245 33.2219 17.735 32.7282 17.3506 32.3132C16.9662 31.8982 16.4961 31.5717 15.9729 31.3565C15.4498 31.1413 14.8861 31.0425 14.3209 31.067C13.7557 31.0914 13.2026 31.2385 12.7 31.498L10.477 32.6095L8.33201 30.4645L9.502 28.3C9.76154 27.7974 9.90862 27.2443 9.93304 26.6791C9.95747 26.1139 9.85865 25.5502 9.64345 25.0271C9.42825 24.5039 9.10182 24.0338 8.6868 23.6494C8.27177 23.265 7.77809 22.9755 7.24 22.801L4.90001 22.021V18.979L7.24 18.199C7.77809 18.0245 8.27177 17.735 8.6868 17.3506C9.10182 16.9662 9.42825 16.4961 9.64345 15.9729C9.85865 15.4498 9.95747 14.8861 9.93304 14.3209C9.90862 13.7557 9.76154 13.2026 9.502 12.7L8.3905 10.5355L10.5355 8.3905L12.7 9.502C13.2026 9.76154 13.7557 9.90862 14.3209 9.93304C14.8861 9.95747 15.4498 9.85865 15.9729 9.64345C16.4961 9.42825 16.9662 9.10182 17.3506 8.6868C17.735 8.27177 18.0245 7.77809 18.199 7.24L18.979 4.90001H22.021L22.801 7.24C22.9755 7.77809 23.265 8.27177 23.6494 8.6868C24.0338 9.10182 24.5039 9.42825 25.0271 9.64345C25.5502 9.85865 26.1139 9.95747 26.6791 9.93304C27.2443 9.90862 27.7974 9.76154 28.3 9.502L30.523 8.3905L32.668 10.5355L31.498 12.7C31.2489 13.2001 31.1101 13.7478 31.091 14.3062C31.072 14.8646 31.1731 15.4205 31.3876 15.9364C31.6021 16.4523 31.9249 16.916 32.3342 17.2963C32.7435 17.6766 33.2298 17.9645 33.76 18.1405L36.1 18.9205V22.021ZM20.5 12.7C18.9573 12.7 17.4493 13.1575 16.1666 14.0145C14.8839 14.8716 13.8841 16.0898 13.2937 17.5151C12.7034 18.9403 12.5489 20.5087 12.8499 22.0217C13.1508 23.5348 13.8937 24.9246 14.9846 26.0154C16.0754 27.1063 17.4652 27.8492 18.9783 28.1501C20.4913 28.4511 22.0597 28.2966 23.4849 27.7063C24.9102 27.1159 26.1284 26.1161 26.9855 24.8334C27.8425 23.5507 28.3 22.0427 28.3 20.5C28.3 18.4313 27.4782 16.4474 26.0154 14.9846C24.5526 13.5218 22.5687 12.7 20.5 12.7ZM20.5 24.4C19.7287 24.4 18.9746 24.1713 18.3333 23.7427C17.6919 23.3142 17.1921 22.7051 16.8969 21.9925C16.6017 21.2798 16.5245 20.4957 16.6749 19.7391C16.8254 18.9826 17.1969 18.2877 17.7423 17.7423C18.2877 17.1969 18.9826 16.8254 19.7391 16.6749C20.4957 16.5245 21.2798 16.6017 21.9925 16.8969C22.7051 17.1921 23.3142 17.6919 23.7427 18.3333C24.1713 18.9746 24.4 19.7287 24.4 20.5C24.4 21.5343 23.9891 22.5263 23.2577 23.2577C22.5263 23.9891 21.5343 24.4 20.5 24.4Z" fill="white"/>
<path d="M38.674 15.7225L34.9885 14.494L36.724 11.023C36.8999 10.6597 36.9588 10.2507 36.8924 9.85256C36.826 9.45439 36.6377 9.08662 36.3535 8.8L32.2 4.64651C31.9119 4.35807 31.5406 4.16721 31.1383 4.10075C30.7361 4.03429 30.3231 4.09558 29.9575 4.27601L26.4865 6.01151L25.258 2.32601C25.1283 1.94184 24.882 1.60768 24.5535 1.37002C24.2249 1.13235 23.8305 1.00302 23.425 1.00001H17.575C17.1662 0.998951 16.7674 1.1264 16.435 1.36435C16.1026 1.60229 15.8533 1.9387 15.7225 2.32601L14.494 6.01151L11.023 4.27601C10.6597 4.10008 10.2507 4.04123 9.85256 4.1076C9.45439 4.17396 9.08662 4.36225 8.8 4.64651L4.64651 8.8C4.35807 9.08815 4.16721 9.45945 4.10075 9.86169C4.03429 10.2639 4.09558 10.6769 4.27601 11.0425L6.01151 14.5135L2.32601 15.742C1.94184 15.8717 1.60768 16.118 1.37002 16.4466C1.13235 16.7751 1.00302 17.1695 1.00001 17.575V23.425C0.998951 23.8338 1.1264 24.2326 1.36435 24.565C1.60229 24.8974 1.9387 25.1467 2.32601 25.2775L6.01151 26.506L4.27601 29.977C4.10008 30.3403 4.04123 30.7493 4.1076 31.1474C4.17396 31.5456 4.36225 31.9134 4.64651 32.2L8.8 36.3535C9.08815 36.6419 9.45945 36.8328 9.86169 36.8993C10.2639 36.9657 10.6769 36.9044 11.0425 36.724L14.5135 34.9885L15.742 38.674C15.8728 39.0613 16.1221 39.3977 16.4545 39.6357C16.7869 39.8736 17.1857 40.0011 17.5945 40H23.4445C23.8533 40.0011 24.2521 39.8736 24.5845 39.6357C24.9169 39.3977 25.1662 39.0613 25.297 38.674L26.5255 34.9885L29.9965 36.724C30.3575 36.8955 30.7625 36.9519 31.1566 36.8857C31.5507 36.8194 31.9149 36.6336 32.2 36.3535L36.3535 32.2C36.6419 31.9119 36.8328 31.5406 36.8993 31.1383C36.9657 30.7361 36.9044 30.3231 36.724 29.9575L34.9885 26.4865L38.674 25.258C39.0582 25.1283 39.3923 24.882 39.63 24.5535C39.8676 24.2249 39.997 23.8305 40 23.425V17.575C40.0011 17.1662 39.8736 16.7674 39.6357 16.435C39.3977 16.1026 39.0613 15.8533 38.674 15.7225ZM36.1 22.021L33.76 22.801C33.2219 22.9755 32.7282 23.265 32.3132 23.6494C31.8982 24.0338 31.5717 24.5039 31.3565 25.0271C31.1413 25.5502 31.0425 26.1139 31.067 26.6791C31.0914 27.2443 31.2385 27.7974 31.498 28.3L32.6095 30.523L30.4645 32.668L28.3 31.498C27.7999 31.2489 27.2522 31.1101 26.6938 31.091C26.1354 31.072 25.5795 31.1731 25.0636 31.3876C24.5477 31.6021 24.084 31.9249 23.7037 32.3342C23.3234 32.7435 23.0355 33.2298 22.8595 33.76L22.0795 36.1H18.979L18.199 33.76C18.0245 33.2219 17.735 32.7282 17.3506 32.3132C16.9662 31.8982 16.4961 31.5717 15.9729 31.3565C15.4498 31.1413 14.8861 31.0425 14.3209 31.067C13.7557 31.0914 13.2026 31.2385 12.7 31.498L10.477 32.6095L8.33201 30.4645L9.502 28.3C9.76154 27.7974 9.90862 27.2443 9.93304 26.6791C9.95747 26.1139 9.85865 25.5502 9.64345 25.0271C9.42825 24.5039 9.10182 24.0338 8.6868 23.6494C8.27177 23.265 7.77809 22.9755 7.24 22.801L4.90001 22.021V18.979L7.24 18.199C7.77809 18.0245 8.27177 17.735 8.6868 17.3506C9.10182 16.9662 9.42825 16.4961 9.64345 15.9729C9.85865 15.4498 9.95747 14.8861 9.93304 14.3209C9.90862 13.7557 9.76154 13.2026 9.502 12.7L8.3905 10.5355L10.5355 8.3905L12.7 9.502C13.2026 9.76154 13.7557 9.90862 14.3209 9.93304C14.8861 9.95747 15.4498 9.85865 15.9729 9.64345C16.4961 9.42825 16.9662 9.10182 17.3506 8.6868C17.735 8.27177 18.0245 7.77809 18.199 7.24L18.979 4.90001H22.021L22.801 7.24C22.9755 7.77809 23.265 8.27177 23.6494 8.6868C24.0338 9.10182 24.5039 9.42825 25.0271 9.64345C25.5502 9.85865 26.1139 9.95747 26.6791 9.93304C27.2443 9.90862 27.7974 9.76154 28.3 9.502L30.523 8.3905L32.668 10.5355L31.498 12.7C31.2489 13.2001 31.1101 13.7478 31.091 14.3062C31.072 14.8646 31.1731 15.4205 31.3876 15.9364C31.6021 16.4523 31.9249 16.916 32.3342 17.2963C32.7435 17.6766 33.2298 17.9645 33.76 18.1405L36.1 18.9205V22.021ZM20.5 12.7C18.9573 12.7 17.4493 13.1575 16.1666 14.0145C14.8839 14.8716 13.8841 16.0898 13.2937 17.5151C12.7034 18.9403 12.5489 20.5087 12.8499 22.0217C13.1508 23.5348 13.8937 24.9246 14.9846 26.0154C16.0754 27.1063 17.4652 27.8492 18.9783 28.1501C20.4913 28.4511 22.0597 28.2966 23.4849 27.7063C24.9102 27.1159 26.1284 26.1161 26.9855 24.8334C27.8425 23.5507 28.3 22.0427 28.3 20.5C28.3 18.4313 27.4782 16.4474 26.0154 14.9846C24.5526 13.5218 22.5687 12.7 20.5 12.7ZM20.5 24.4C19.7287 24.4 18.9746 24.1713 18.3333 23.7427C17.6919 23.3142 17.1921 22.7051 16.8969 21.9925C16.6017 21.2798 16.5245 20.4957 16.6749 19.7391C16.8254 18.9826 17.1969 18.2877 17.7423 17.7423C18.2877 17.1969 18.9826 16.8254 19.7391 16.6749C20.4957 16.5245 21.2798 16.6017 21.9925 16.8969C22.7051 17.1921 23.3142 17.6919 23.7427 18.3333C24.1713 18.9746 24.4 19.7287 24.4 20.5C24.4 21.5343 23.9891 22.5263 23.2577 23.2577C22.5263 23.9891 21.5343 24.4 20.5 24.4Z" stroke="#7C3CDC" stroke-width="2" mask="url(#path-1-outside-1_941_778)"/>
</svg>
