<svg width="29" height="29" viewBox="0 0 29 29" fill="none" xmlns="http://www.w3.org/2000/svg">
<circle cx="15.2826" cy="13.7162" r="13.7162" fill="#2C006E"/>
<path d="M15.4316 1.56738C22.06 1.56738 27.4336 6.94099 27.4336 13.5693C27.4335 20.1976 22.0599 25.5703 15.4316 25.5703C8.80341 25.5703 3.42983 20.1975 3.42969 13.5693C3.42969 6.94101 8.80333 1.56743 15.4316 1.56738ZM14.4316 12.54V19.8555H16.4316V12.54H14.4316ZM15.4307 6.90137C14.6944 6.90162 14.0977 7.49902 14.0977 8.23535C14.0978 8.97153 14.6945 9.56811 15.4307 9.56836C16.167 9.56836 16.7645 8.97169 16.7646 8.23535C16.7646 7.49887 16.1671 6.90137 15.4307 6.90137Z" fill="white"/>
</svg>
