<svg width="32" height="32" viewBox="0 0 32 32" fill="none" xmlns="http://www.w3.org/2000/svg">
<path d="M16.9467 23.6134C17.0716 23.4895 17.1708 23.342 17.2385 23.1795C17.3062 23.017 17.3411 22.8428 17.3411 22.6668C17.3411 22.4907 17.3062 22.3165 17.2385 22.154C17.1708 21.9915 17.0716 21.844 16.9467 21.7201L12.5467 17.3334H22.6667C23.0203 17.3334 23.3594 17.1929 23.6095 16.9429C23.8595 16.6928 24 16.3537 24 16.0001C24 15.6465 23.8595 15.3073 23.6095 15.0573C23.3594 14.8072 23.0203 14.6668 22.6667 14.6668L12.5467 14.6668L16.9467 10.2801C17.1977 10.029 17.3388 9.68849 17.3388 9.33342C17.3388 8.97835 17.1977 8.63782 16.9467 8.38675C16.6956 8.13568 16.3551 7.99463 16 7.99463C15.6449 7.99463 15.3044 8.13568 15.0533 8.38675L8.38667 15.0534C8.26528 15.1802 8.17012 15.3297 8.10667 15.4934C8.03613 15.653 7.99969 15.8256 7.99969 16.0001C7.99969 16.1746 8.03613 16.3472 8.10667 16.5068C8.17012 16.6704 8.26528 16.8199 8.38667 16.9468L15.0533 23.6134C15.1773 23.7384 15.3248 23.8376 15.4872 23.9053C15.6497 23.973 15.824 24.0078 16 24.0078C16.176 24.0078 16.3503 23.973 16.5128 23.9053C16.6752 23.8376 16.8227 23.7384 16.9467 23.6134Z" fill="#2E0073"/>
</svg>
