<svg width="29" height="29" viewBox="0 0 29 29" fill="none" xmlns="http://www.w3.org/2000/svg">
<mask id="path-1-inside-1_183_2676" fill="white">
<path d="M26.5847 8.74868C26.5856 8.58965 26.5551 8.43201 26.495 8.28479C26.4348 8.13757 26.3462 8.00367 26.2342 7.89076L21.1109 2.76743C20.998 2.65544 20.8641 2.56684 20.7169 2.50671C20.5697 2.44657 20.412 2.41609 20.253 2.41701C20.094 2.41609 19.9363 2.44657 19.7891 2.50671C19.6419 2.56684 19.508 2.65544 19.3951 2.76743L15.9755 6.18701L2.76841 19.3941C2.65642 19.507 2.56781 19.6409 2.50768 19.7881C2.44755 19.9353 2.41707 20.093 2.41799 20.252V25.3753C2.41799 25.6958 2.5453 26.0032 2.7719 26.2298C2.99851 26.4564 3.30585 26.5837 3.62632 26.5837H8.74966C8.91874 26.5929 9.08786 26.5664 9.24606 26.5061C9.40427 26.4457 9.54802 26.3528 9.66799 26.2333L22.8026 13.0262L26.2342 9.66701C26.3445 9.5499 26.4344 9.41511 26.5001 9.26826C26.5117 9.17195 26.5117 9.07458 26.5001 8.97826C26.5057 8.92201 26.5057 8.86534 26.5001 8.8091L26.5847 8.74868ZM8.25424 24.167H4.83466V20.7474L16.8334 8.74868L20.253 12.1683L8.25424 24.167ZM21.9567 10.4645L18.5372 7.04493L20.253 5.34118L23.6605 8.74868L21.9567 10.4645Z"/>
</mask>
<path d="M26.5847 8.74868C26.5856 8.58965 26.5551 8.43201 26.495 8.28479C26.4348 8.13757 26.3462 8.00367 26.2342 7.89076L21.1109 2.76743C20.998 2.65544 20.8641 2.56684 20.7169 2.50671C20.5697 2.44657 20.412 2.41609 20.253 2.41701C20.094 2.41609 19.9363 2.44657 19.7891 2.50671C19.6419 2.56684 19.508 2.65544 19.3951 2.76743L15.9755 6.18701L2.76841 19.3941C2.65642 19.507 2.56781 19.6409 2.50768 19.7881C2.44755 19.9353 2.41707 20.093 2.41799 20.252V25.3753C2.41799 25.6958 2.5453 26.0032 2.7719 26.2298C2.99851 26.4564 3.30585 26.5837 3.62632 26.5837H8.74966C8.91874 26.5929 9.08786 26.5664 9.24606 26.5061C9.40427 26.4457 9.54802 26.3528 9.66799 26.2333L22.8026 13.0262L26.2342 9.66701C26.3445 9.5499 26.4344 9.41511 26.5001 9.26826C26.5117 9.17195 26.5117 9.07458 26.5001 8.97826C26.5057 8.92201 26.5057 8.86534 26.5001 8.8091L26.5847 8.74868ZM8.25424 24.167H4.83466V20.7474L16.8334 8.74868L20.253 12.1683L8.25424 24.167ZM21.9567 10.4645L18.5372 7.04493L20.253 5.34118L23.6605 8.74868L21.9567 10.4645Z" fill="white"/>
<path d="M26.5847 8.74868L28.9096 12.0036L30.5728 10.8156L30.5846 8.7718L26.5847 8.74868ZM26.2342 7.89076L29.0742 5.07389L29.0684 5.0681L29.0627 5.06234L26.2342 7.89076ZM21.1109 2.76743L23.9393 -0.0609982L23.9336 -0.0667629L23.9278 -0.0725043L21.1109 2.76743ZM20.253 2.41701L20.2299 6.41695L20.253 6.41708L20.2761 6.41695L20.253 2.41701ZM19.3951 2.76743L16.5782 -0.0725043L16.5724 -0.0667629L16.5666 -0.0609977L19.3951 2.76743ZM15.9755 6.18701L18.8039 9.01544V9.01544L15.9755 6.18701ZM2.76841 19.3941L-0.0600214 16.5657L-0.0657861 16.5714L-0.0715275 16.5772L2.76841 19.3941ZM2.41799 20.252H6.41799V20.2404L6.41792 20.2289L2.41799 20.252ZM2.41799 25.3753H-1.58201H2.41799ZM8.74966 26.5837L8.96691 22.5896L8.85836 22.5837H8.74966V26.5837ZM9.66799 26.2333L12.4907 29.0674L12.4975 29.0606L12.5042 29.0539L9.66799 26.2333ZM22.8026 13.0262L20.0045 10.1677L19.9853 10.1865L19.9664 10.2055L22.8026 13.0262ZM26.2342 9.66701L29.0323 12.5255L29.0904 12.4686L29.1462 12.4094L26.2342 9.66701ZM26.5001 9.26826L30.1515 10.9014L30.3986 10.349L30.4712 9.74826L26.5001 9.26826ZM26.5001 8.97826L22.5201 8.57826L22.4759 9.01875L22.529 9.45826L26.5001 8.97826ZM26.5001 8.8091L24.1751 5.55417L22.2882 6.90194L22.5201 9.2091L26.5001 8.8091ZM8.25424 24.167V28.167H9.91109L11.0827 26.9954L8.25424 24.167ZM4.83466 24.167H0.834656V28.167H4.83466V24.167ZM4.83466 20.7474L2.00623 17.919L0.834656 19.0906V20.7474H4.83466ZM16.8334 8.74868L19.6618 5.92025L16.8334 3.09182L14.005 5.92025L16.8334 8.74868ZM20.253 12.1683L23.0814 14.9967L25.9098 12.1683L23.0814 9.33983L20.253 12.1683ZM21.9567 10.4645L19.1283 13.2929L21.9668 16.1314L24.7951 13.2829L21.9567 10.4645ZM18.5372 7.04493L15.7187 4.20652L12.8703 7.03492L15.7087 9.87336L18.5372 7.04493ZM20.253 5.34118L23.0814 2.51275L20.263 -0.305698L17.4346 2.50277L20.253 5.34118ZM23.6605 8.74868L26.4989 11.5671L29.3074 8.7387L26.4889 5.92025L23.6605 8.74868ZM26.5847 8.74868L30.5846 8.7718C30.5886 8.08636 30.4572 7.40687 30.198 6.77229L26.495 8.28479L22.7919 9.79729C22.653 9.45715 22.5826 9.09295 22.5847 8.72555L26.5847 8.74868ZM26.495 8.28479L30.198 6.77229C29.9388 6.1377 29.5569 5.56054 29.0742 5.07389L26.2342 7.89076L23.3943 10.7076C23.1356 10.4468 22.9309 10.1374 22.7919 9.79729L26.495 8.28479ZM26.2342 7.89076L29.0627 5.06234L23.9393 -0.0609982L21.1109 2.76743L18.2825 5.59586L23.4058 10.7192L26.2342 7.89076ZM21.1109 2.76743L23.9278 -0.0725043C23.4411 -0.555222 22.8639 -0.937123 22.2294 -1.19631L20.7169 2.50671L19.2044 6.20972C18.8642 6.0708 18.5549 5.8661 18.294 5.60736L21.1109 2.76743ZM20.7169 2.50671L22.2294 -1.19631C21.5948 -1.4555 20.9153 -1.58688 20.2299 -1.58292L20.253 2.41701L20.2761 6.41695C19.9087 6.41907 19.5445 6.34865 19.2044 6.20972L20.7169 2.50671ZM20.253 2.41701L20.2761 -1.58292C19.5907 -1.58688 18.9112 -1.4555 18.2766 -1.19631L19.7891 2.50671L21.3016 6.20972C20.9615 6.34865 20.5973 6.41907 20.2299 6.41695L20.253 2.41701ZM19.7891 2.50671L18.2766 -1.19631C17.642 -0.937123 17.0649 -0.555222 16.5782 -0.0725043L19.3951 2.76743L22.2119 5.60736C21.9511 5.8661 21.6417 6.0708 21.3016 6.20972L19.7891 2.50671ZM19.3951 2.76743L16.5666 -0.0609977L13.1471 3.35859L15.9755 6.18701L18.8039 9.01544L22.2235 5.59586L19.3951 2.76743ZM15.9755 6.18701L13.1471 3.35858L-0.0600214 16.5657L2.76841 19.3941L5.59683 22.2225L18.8039 9.01544L15.9755 6.18701ZM2.76841 19.3941L-0.0715275 16.5772C-0.554245 17.0639 -0.936146 17.6411 -1.19534 18.2756L2.50768 19.7881L6.2107 21.3006C6.07177 21.6408 5.86708 21.9501 5.60834 22.211L2.76841 19.3941ZM2.50768 19.7881L-1.19534 18.2756C-1.45453 18.9102 -1.58591 19.5897 -1.58194 20.2751L2.41799 20.252L6.41792 20.2289C6.42005 20.5963 6.34963 20.9605 6.2107 21.3006L2.50768 19.7881ZM2.41799 20.252H-1.58201V25.3753H2.41799H6.41799V20.252H2.41799ZM2.41799 25.3753H-1.58201C-1.58201 26.7567 -1.03328 28.0814 -0.0565255 29.0582L2.7719 26.2298L5.60033 23.4013C6.12387 23.9249 6.41799 24.635 6.41799 25.3753H2.41799ZM2.7719 26.2298L-0.0565255 29.0582C0.920232 30.035 2.24499 30.5837 3.62632 30.5837V26.5837V22.5837C4.36671 22.5837 5.07678 22.8778 5.60033 23.4013L2.7719 26.2298ZM3.62632 26.5837V30.5837H8.74966V26.5837V22.5837H3.62632V26.5837ZM8.74966 26.5837L8.5324 30.5778C9.26121 30.6174 9.99019 30.5034 10.6721 30.2432L9.24606 26.5061L7.82004 22.7689C8.18553 22.6294 8.57626 22.5683 8.96691 22.5896L8.74966 26.5837ZM9.24606 26.5061L10.6721 30.2432C11.354 29.983 11.9736 29.5824 12.4907 29.0674L9.66799 26.2333L6.84524 23.3992C7.12242 23.1231 7.45453 22.9084 7.82004 22.7689L9.24606 26.5061ZM9.66799 26.2333L12.5042 29.0539L25.6388 15.8468L22.8026 13.0262L19.9664 10.2055L6.83179 23.4126L9.66799 26.2333ZM22.8026 13.0262L25.6006 15.8846L29.0323 12.5255L26.2342 9.66701L23.4362 6.80855L20.0045 10.1677L22.8026 13.0262ZM26.2342 9.66701L29.1462 12.4094C29.5632 11.9665 29.9031 11.4568 30.1515 10.9014L26.5001 9.26826L22.8487 7.63511C22.9657 7.37343 23.1258 7.13327 23.3223 6.92461L26.2342 9.66701ZM26.5001 9.26826L30.4712 9.74826C30.5214 9.33311 30.5214 8.91342 30.4712 8.49826L26.5001 8.97826L22.529 9.45826C22.5021 9.23574 22.5021 9.01079 22.529 8.78826L26.5001 9.26826ZM26.5001 8.97826L30.48 9.37826C30.5124 9.05602 30.5124 8.73134 30.48 8.4091L26.5001 8.8091L22.5201 9.2091C22.499 8.99935 22.499 8.78801 22.5201 8.57826L26.5001 8.97826ZM26.5001 8.8091L28.825 12.064L28.9096 12.0036L26.5847 8.74868L24.2597 5.49375L24.1751 5.55417L26.5001 8.8091ZM8.25424 24.167V20.167H4.83466V24.167V28.167H8.25424V24.167ZM4.83466 24.167H8.83466V20.7474H4.83466H0.834656V24.167H4.83466ZM4.83466 20.7474L7.66308 23.5759L19.6618 11.5771L16.8334 8.74868L14.005 5.92025L2.00623 17.919L4.83466 20.7474ZM16.8334 8.74868L14.005 11.5771L17.4246 14.9967L20.253 12.1683L23.0814 9.33983L19.6618 5.92025L16.8334 8.74868ZM20.253 12.1683L17.4246 9.33983L5.42581 21.3386L8.25424 24.167L11.0827 26.9954L23.0814 14.9967L20.253 12.1683ZM21.9567 10.4645L24.7852 7.63608L21.3656 4.2165L18.5372 7.04493L15.7087 9.87336L19.1283 13.2929L21.9567 10.4645ZM18.5372 7.04493L21.3556 9.88333L23.0714 8.17958L20.253 5.34118L17.4346 2.50277L15.7187 4.20652L18.5372 7.04493ZM20.253 5.34118L17.4246 8.16961L20.8321 11.5771L23.6605 8.74868L26.4889 5.92025L23.0814 2.51275L20.253 5.34118ZM23.6605 8.74868L20.8221 5.93026L19.1183 7.6461L21.9567 10.4645L24.7951 13.2829L26.4989 11.5671L23.6605 8.74868Z" fill="white" mask="url(#path-1-inside-1_183_2676)"/>
</svg>
