
<svg width="32" height="32" viewBox="0 0 32 32" fill="none" xmlns="http://www.w3.org/2000/svg">
<path d="M15.0533 23.6134C14.9284 23.4895 14.8292 23.342 14.7615 23.1795C14.6938 23.017 14.6589 22.8428 14.6589 22.6667C14.6589 22.4907 14.6938 22.3165 14.7615 22.154C14.8292 21.9915 14.9284 21.844 15.0533 21.7201L19.4533 17.3334H9.33333C8.97971 17.3334 8.64057 17.1929 8.39052 16.9429C8.14048 16.6928 8 16.3537 8 16.0001C8 15.6465 8.14048 15.3073 8.39052 15.0573C8.64057 14.8072 8.97971 14.6668 9.33333 14.6668L19.4533 14.6668L15.0533 10.2801C14.8023 10.029 14.6612 9.68849 14.6612 9.33342C14.6612 8.97835 14.8023 8.63782 15.0533 8.38675C15.3044 8.13568 15.6449 7.99463 16 7.99463C16.3551 7.99463 16.6956 8.13568 16.9467 8.38675L23.6133 15.0534C23.7347 15.1802 23.8299 15.3297 23.8933 15.4934C23.9639 15.653 24.0003 15.8256 24.0003 16.0001C24.0003 16.1746 23.9639 16.3472 23.8933 16.5068C23.8299 16.6704 23.7347 16.8199 23.6133 16.9468L16.9467 23.6134C16.8227 23.7384 16.6752 23.8376 16.5128 23.9053C16.3503 23.973 16.176 24.0078 16 24.0078C15.824 24.0078 15.6497 23.973 15.4872 23.9053C15.3248 23.8376 15.1773 23.7384 15.0533 23.6134Z" fill="#2E0073"/>
</svg>
