<svg width="9" height="8" viewBox="0 0 9 8" fill="none" xmlns="http://www.w3.org/2000/svg">
<path d="M8.24609 0.5C8.33074 0.5 8.40225 0.530212 8.44629 0.569336C8.4884 0.606777 8.49902 0.644418 8.49902 0.668945C8.49899 0.693408 8.48807 0.73029 8.44629 0.767578L5.22461 3.625L4.80273 3.99902L5.22461 4.37305L8.44629 7.23145L8.44727 7.23242C8.46839 7.25105 8.4816 7.26982 8.48926 7.28613C8.4968 7.30223 8.5 7.31693 8.5 7.33008L8.48926 7.37402C8.4816 7.39032 8.46835 7.40914 8.44727 7.42773L8.44434 7.43066C8.42352 7.44928 8.39578 7.46666 8.36133 7.47949C8.3265 7.49239 8.28669 7.5 8.24609 7.5C8.2056 7.49997 8.16658 7.49236 8.13184 7.47949C8.09712 7.46661 8.06876 7.4494 8.04785 7.43066L8.04688 7.42969L4.83301 4.56543L4.5 4.26855L4.16699 4.56543L0.953125 7.42969L0.952148 7.43066C0.931245 7.4494 0.902885 7.46661 0.868164 7.47949C0.833418 7.49236 0.794404 7.49997 0.753906 7.5C0.713306 7.5 0.6735 7.49239 0.638672 7.47949C0.604216 7.46666 0.576476 7.44928 0.555664 7.43066L0.552734 7.42773L0.510742 7.37402C0.503208 7.35795 0.500008 7.34321 0.5 7.33008C0.5 7.31693 0.503197 7.30223 0.510742 7.28613C0.518399 7.26981 0.531613 7.25105 0.552734 7.23242L0.553711 7.23145L3.77539 4.37305L4.19727 3.99902L3.77539 3.625L0.552734 0.767578C0.51141 0.730453 0.501005 0.693303 0.500977 0.668945C0.500977 0.644418 0.511596 0.606776 0.553711 0.569336C0.597745 0.530212 0.669263 0.5 0.753906 0.5C0.817074 0.500051 0.872624 0.517097 0.915039 0.541992L0.953125 0.569336L4.16699 3.43359L4.5 3.72949L4.83301 3.43359L8.04688 0.569336C8.09088 0.530353 8.16172 0.500068 8.24609 0.5Z" fill="#000000" stroke="#000000"/>
</svg>
